<svg xmlns="http://www.w3.org/2000/svg" width="1500" height="860" viewBox="0 0 1500 860">
<rect width="1500" height="860" fill="#f5f7fb"/>
<style>text{font-family:Inter,Segoe UI,Arial,sans-serif}</style>
<text x="54" y="58" font-size="30" font-weight="800" fill="#111827">H5. 7-day early warning</text>
<text x="54" y="88" font-size="15" fill="#64748b">Classification accuracy and operational lead time.</text>
<rect x="56" y="120" width="1388" height="660" rx="14" fill="#ffffff" stroke="#d7dde8"/>
<rect x="56" y="120" width="12" height="660" rx="6" fill="#2E7D5B"/>
<rect x="96" y="150" width="150" height="38" rx="19" fill="#2E7D5B" fill-opacity="0.14"/>
<text x="171" y="175" text-anchor="middle" font-size="14" font-weight="900" fill="#2E7D5B">Supported</text>
<text x="96" y="240" font-size="18" font-weight="900" fill="#111827">Lead-time workflow</text>
<rect x="130" y="286" width="270" height="116" rx="12" fill="#f8fafc" stroke="#d7dde8"/>
<text x="154" y="326" font-size="18" font-weight="900" fill="#111827">Today</text>
<text x="154" y="360" font-size="13" fill="#475569">
<tspan x="154" dy="0">water, weather, dam operation</tspan>
</text>
<line x1="414" y1="344" x2="478" y2="344" stroke="#94a3b8" stroke-width="4" stroke-linecap="round"/>
<path d="M 478 332 L 500 344 L 478 356 Z" fill="#94a3b8"/>
<rect x="510" y="286" width="270" height="116" rx="12" fill="#f8fafc" stroke="#d7dde8"/>
<text x="534" y="326" font-size="18" font-weight="900" fill="#111827">+7 days</text>
<text x="534" y="360" font-size="13" fill="#475569">
<tspan x="534" dy="0">predicted alert risk</tspan>
</text>
<line x1="794" y1="344" x2="858" y2="344" stroke="#94a3b8" stroke-width="4" stroke-linecap="round"/>
<path d="M 858 332 L 880 344 L 858 356 Z" fill="#94a3b8"/>
<rect x="890" y="286" width="270" height="116" rx="12" fill="#f8fafc" stroke="#d7dde8"/>
<text x="914" y="326" font-size="18" font-weight="900" fill="#111827">Before alert</text>
<text x="914" y="360" font-size="13" fill="#475569">
<tspan x="914" dy="0">prepare response</tspan>
</text>
<rect x="98" y="470" width="240" height="126" rx="10" fill="#f8fafc" stroke="#d7dde8"/>
<text x="116" y="502" font-size="13" font-weight="800" fill="#64748b">Accuracy</text>
<text x="116" y="546" font-size="28" font-weight="900" fill="#2E7D5B">95.6%</text>
<text x="116" y="572" font-size="12" fill="#64748b">
<tspan x="116" dy="0">validation set</tspan>
</text>
<rect x="363" y="470" width="240" height="126" rx="10" fill="#f8fafc" stroke="#d7dde8"/>
<text x="381" y="502" font-size="13" font-weight="800" fill="#64748b">Precision</text>
<text x="381" y="546" font-size="28" font-weight="900" fill="#2E7D5B">90.7%</text>
<text x="381" y="572" font-size="12" fill="#64748b">
<tspan x="381" dy="0">validation set</tspan>
</text>
<rect x="628" y="470" width="240" height="126" rx="10" fill="#f8fafc" stroke="#d7dde8"/>
<text x="646" y="502" font-size="13" font-weight="800" fill="#64748b">Recall</text>
<text x="646" y="546" font-size="28" font-weight="900" fill="#2E7D5B">100.0%</text>
<text x="646" y="572" font-size="12" fill="#64748b">
<tspan x="646" dy="0">validation set</tspan>
</text>
<rect x="893" y="470" width="240" height="126" rx="10" fill="#f8fafc" stroke="#d7dde8"/>
<text x="911" y="502" font-size="13" font-weight="800" fill="#64748b">F1-score</text>
<text x="911" y="546" font-size="28" font-weight="900" fill="#2E7D5B">0.951</text>
<text x="911" y="572" font-size="12" fill="#64748b">
<tspan x="911" dy="0">validation set</tspan>
</text>
<rect x="1158" y="470" width="240" height="126" rx="10" fill="#f8fafc" stroke="#d7dde8"/>
<text x="1176" y="502" font-size="13" font-weight="800" fill="#64748b">p-value</text>
<text x="1176" y="546" font-size="28" font-weight="900" fill="#2E7D5B">1.81e-56</text>
<text x="1176" y="572" font-size="12" fill="#64748b">
<tspan x="1176" dy="0">validation set</tspan>
</text>
<text x="96" y="650" font-size="18" font-weight="900" fill="#111827">Key result</text>
<text x="96" y="680" font-size="15" fill="#334155">
<tspan x="96" dy="0">False Negative = 0. The model did not miss any actual alert-risk case in validation, which is critical for pre-alert action.</tspan>
</text>
</svg>