<svg xmlns="http://www.w3.org/2000/svg" width="1400" height="820" viewBox="0 0 1400 820">
<rect width="1400" height="820" fill="#f5f7fb"/>
<style>text{font-family:Inter,Segoe UI,Arial,sans-serif}.muted{fill:#64748b}.ink{fill:#111827}.panel{fill:#ffffff;stroke:#d7dde8}</style>
<text x="52" y="58" font-size="30" font-weight="800" fill="#111827">Reliability Check - Regression</text>
<text x="52" y="86" font-size="15" fill="#64748b">Next log10(cells + 1) prediction quality on the validation set</text>
<rect x="52" y="126" width="240" height="130" rx="8" fill="#ffffff" stroke="#d7dde8"/>
<text x="70" y="156" font-size="14" font-weight="700" fill="#475569">Final Model</text>
<text x="70" y="196" font-size="21" font-weight="800" fill="#111827">Stacking Ensemble</text>
<text x="70" y="224" font-size="12" fill="#64748b">
<tspan x="70" dy="0">lowest RMSE</tspan>
</text>
<rect x="312" y="126" width="180" height="130" rx="8" fill="#ffffff" stroke="#d7dde8"/>
<text x="330" y="156" font-size="14" font-weight="700" fill="#475569">MAE(log)</text>
<text x="330" y="196" font-size="28" font-weight="800" fill="#111827">0.477</text>
<rect x="512" y="126" width="180" height="130" rx="8" fill="#ffffff" stroke="#d7dde8"/>
<text x="530" y="156" font-size="14" font-weight="700" fill="#475569">RMSE(log)</text>
<text x="530" y="196" font-size="28" font-weight="800" fill="#111827">0.660</text>
<rect x="712" y="126" width="180" height="130" rx="8" fill="#ffffff" stroke="#d7dde8"/>
<text x="730" y="156" font-size="14" font-weight="700" fill="#475569">R-squared</text>
<text x="730" y="196" font-size="28" font-weight="800" fill="#111827">0.844</text>
<rect x="912" y="126" width="190" height="130" rx="8" fill="#ffffff" stroke="#d7dde8"/>
<text x="930" y="156" font-size="14" font-weight="700" fill="#475569">MAE(cells)</text>
<text x="930" y="196" font-size="28" font-weight="800" fill="#111827">4,390</text>
<rect x="1122" y="126" width="220" height="130" rx="8" fill="#ffffff" stroke="#d7dde8"/>
<text x="1140" y="156" font-size="14" font-weight="700" fill="#475569">RMSE(cells)</text>
<text x="1140" y="196" font-size="28" font-weight="800" fill="#111827">13,315</text>
<rect x="60" y="322" width="670" height="460" rx="8" fill="#ffffff" stroke="#d7dde8"/>
<text x="78" y="356" font-size="20" font-weight="800" fill="#1f2937">Predicted vs Actual</text>
<line x1="78" y1="716" x2="668" y2="716" stroke="#cbd5e1"/>
<line x1="78" y1="376" x2="78" y2="716" stroke="#cbd5e1"/>
<line x1="78" y1="716" x2="668" y2="376" stroke="#94a3b8" stroke-dasharray="6 6"/>
<circle cx="116.4" cy="687.6" r="3" fill="#3AAFA9" fill-opacity="0.58"/>
<circle cx="350.0" cy="622.0" r="3" fill="#3AAFA9" fill-opacity="0.58"/>
<circle cx="351.0" cy="689.6" r="3" fill="#3AAFA9" fill-opacity="0.58"/>
<circle cx="116.4" cy="691.4" r="3" fill="#3AAFA9" fill-opacity="0.58"/>
<circle cx="319.8" cy="578.6" r="3" fill="#3AAFA9" fill-opacity="0.58"/>
<circle cx="264.4" cy="663.9" r="3" fill="#3AAFA9" fill-opacity="0.58"/>
<circle cx="238.5" cy="626.0" r="3" fill="#3AAFA9" fill-opacity="0.58"/>
<circle cx="322.4" cy="660.3" r="3" fill="#3AAFA9" fill-opacity="0.58"/>
<circle cx="338.5" cy="607.9" r="3" fill="#3AAFA9" fill-opacity="0.58"/>
<circle cx="267.1" cy="631.9" r="3" fill="#3AAFA9" fill-opacity="0.58"/>
<circle cx="233.1" cy="617.1" r="3" fill="#3AAFA9" fill-opacity="0.58"/>
<circle cx="255.2" cy="594.7" r="3" fill="#3AAFA9" fill-opacity="0.58"/>
<circle cx="314.5" cy="627.4" r="3" fill="#3AAFA9" fill-opacity="0.58"/>
<circle cx="116.4" cy="629.5" r="3" fill="#3AAFA9" fill-opacity="0.58"/>
<circle cx="314.5" cy="601.2" r="3" fill="#3AAFA9" fill-opacity="0.58"/>
<circle cx="185.8" cy="607.0" r="3" fill="#3AAFA9" fill-opacity="0.58"/>
<circle cx="116.4" cy="676.2" r="3" fill="#3AAFA9" fill-opacity="0.58"/>
<circle cx="261.5" cy="622.3" r="3" fill="#3AAFA9" fill-opacity="0.58"/>
<circle cx="116.4" cy="650.2" r="3" fill="#3AAFA9" fill-opacity="0.58"/>
<circle cx="309.9" cy="675.7" r="3" fill="#3AAFA9" fill-opacity="0.58"/>
<circle cx="116.4" cy="679.8" r="3" fill="#3AAFA9" fill-opacity="0.58"/>
<circle cx="116.4" cy="623.7" r="3" fill="#3AAFA9" fill-opacity="0.58"/>
<circle cx="363.1" cy="613.1" r="3" fill="#3AAFA9" fill-opacity="0.58"/>
<circle cx="350.6" cy="662.3" r="3" fill="#3AAFA9" fill-opacity="0.58"/>
<circle cx="116.4" cy="631.0" r="3" fill="#3AAFA9" fill-opacity="0.58"/>
<circle cx="285.0" cy="594.8" r="3" fill="#3AAFA9" fill-opacity="0.58"/>
<circle cx="368.4" cy="621.3" r="3" fill="#3AAFA9" fill-opacity="0.58"/>
<circle cx="116.4" cy="643.5" r="3" fill="#3AAFA9" fill-opacity="0.58"/>
<circle cx="264.4" cy="591.9" r="3" fill="#3AAFA9" fill-opacity="0.58"/>
<circle cx="287.5" cy="605.3" r="3" fill="#3AAFA9" fill-opacity="0.58"/>
<circle cx="321.3" cy="646.7" r="3" fill="#3AAFA9" fill-opacity="0.58"/>
<circle cx="308.9" cy="618.6" r="3" fill="#3AAFA9" fill-opacity="0.58"/>
<circle cx="397.0" cy="614.4" r="3" fill="#3AAFA9" fill-opacity="0.58"/>
<circle cx="389.7" cy="620.0" r="3" fill="#3AAFA9" fill-opacity="0.58"/>
<circle cx="291.4" cy="581.0" r="3" fill="#3AAFA9" fill-opacity="0.58"/>
<circle cx="116.4" cy="607.8" r="3" fill="#3AAFA9" fill-opacity="0.58"/>
<circle cx="368.6" cy="600.1" r="3" fill="#3AAFA9" fill-opacity="0.58"/>
<circle cx="328.5" cy="580.9" r="3" fill="#3AAFA9" fill-opacity="0.58"/>
<circle cx="405.3" cy="626.2" r="3" fill="#3AAFA9" fill-opacity="0.58"/>
<circle cx="399.1" cy="580.5" r="3" fill="#3AAFA9" fill-opacity="0.58"/>
<circle cx="116.4" cy="576.4" r="3" fill="#3AAFA9" fill-opacity="0.58"/>
<circle cx="376.1" cy="572.4" r="3" fill="#3AAFA9" fill-opacity="0.58"/>
<circle cx="378.2" cy="562.9" r="3" fill="#3AAFA9" fill-opacity="0.58"/>
<circle cx="277.5" cy="581.3" r="3" fill="#3AAFA9" fill-opacity="0.58"/>
<circle cx="330.0" cy="550.4" r="3" fill="#3AAFA9" fill-opacity="0.58"/>
<circle cx="392.9" cy="547.3" r="3" fill="#3AAFA9" fill-opacity="0.58"/>
<circle cx="342.6" cy="556.6" r="3" fill="#3AAFA9" fill-opacity="0.58"/>
<circle cx="406.1" cy="545.6" r="3" fill="#3AAFA9" fill-opacity="0.58"/>
<circle cx="116.4" cy="584.2" r="3" fill="#3AAFA9" fill-opacity="0.58"/>
<circle cx="380.8" cy="537.8" r="3" fill="#3AAFA9" fill-opacity="0.58"/>
<circle cx="397.6" cy="592.3" r="3" fill="#3AAFA9" fill-opacity="0.58"/>
<circle cx="404.7" cy="543.0" r="3" fill="#3AAFA9" fill-opacity="0.58"/>
<circle cx="442.5" cy="516.3" r="3" fill="#3AAFA9" fill-opacity="0.58"/>
<circle cx="335.4" cy="576.1" r="3" fill="#3AAFA9" fill-opacity="0.58"/>
<circle cx="410.1" cy="522.7" r="3" fill="#3AAFA9" fill-opacity="0.58"/>
<circle cx="465.4" cy="477.7" r="3" fill="#3AAFA9" fill-opacity="0.58"/>
<circle cx="491.8" cy="522.2" r="3" fill="#3AAFA9" fill-opacity="0.58"/>
<circle cx="462.9" cy="507.8" r="3" fill="#3AAFA9" fill-opacity="0.58"/>
<circle cx="577.2" cy="468.9" r="3" fill="#3AAFA9" fill-opacity="0.58"/>
<circle cx="520.5" cy="483.4" r="3" fill="#3AAFA9" fill-opacity="0.58"/>
<circle cx="554.1" cy="501.3" r="3" fill="#3AAFA9" fill-opacity="0.58"/>
<circle cx="504.7" cy="461.8" r="3" fill="#3AAFA9" fill-opacity="0.58"/>
<circle cx="571.0" cy="457.2" r="3" fill="#3AAFA9" fill-opacity="0.58"/>
<circle cx="605.9" cy="475.6" r="3" fill="#3AAFA9" fill-opacity="0.58"/>
<circle cx="505.9" cy="464.5" r="3" fill="#3AAFA9" fill-opacity="0.58"/>
<circle cx="559.6" cy="444.0" r="3" fill="#3AAFA9" fill-opacity="0.58"/>
<circle cx="593.9" cy="461.1" r="3" fill="#3AAFA9" fill-opacity="0.58"/>
<circle cx="575.8" cy="452.0" r="3" fill="#3AAFA9" fill-opacity="0.58"/>
<circle cx="564.8" cy="463.1" r="3" fill="#3AAFA9" fill-opacity="0.58"/>
<circle cx="558.0" cy="452.5" r="3" fill="#3AAFA9" fill-opacity="0.58"/>
<circle cx="490.6" cy="463.5" r="3" fill="#3AAFA9" fill-opacity="0.58"/>
<circle cx="571.3" cy="441.3" r="3" fill="#3AAFA9" fill-opacity="0.58"/>
<circle cx="573.9" cy="448.5" r="3" fill="#3AAFA9" fill-opacity="0.58"/>
<circle cx="548.2" cy="443.2" r="3" fill="#3AAFA9" fill-opacity="0.58"/>
<circle cx="534.0" cy="455.9" r="3" fill="#3AAFA9" fill-opacity="0.58"/>
<circle cx="559.2" cy="471.6" r="3" fill="#3AAFA9" fill-opacity="0.58"/>
<circle cx="547.3" cy="447.7" r="3" fill="#3AAFA9" fill-opacity="0.58"/>
<circle cx="544.8" cy="464.6" r="3" fill="#3AAFA9" fill-opacity="0.58"/>
<circle cx="548.1" cy="462.4" r="3" fill="#3AAFA9" fill-opacity="0.58"/>
<circle cx="559.0" cy="471.4" r="3" fill="#3AAFA9" fill-opacity="0.58"/>
<circle cx="517.7" cy="474.3" r="3" fill="#3AAFA9" fill-opacity="0.58"/>
<circle cx="569.9" cy="475.4" r="3" fill="#3AAFA9" fill-opacity="0.58"/>
<circle cx="536.7" cy="479.2" r="3" fill="#3AAFA9" fill-opacity="0.58"/>
<circle cx="541.8" cy="473.2" r="3" fill="#3AAFA9" fill-opacity="0.58"/>
<circle cx="558.7" cy="472.5" r="3" fill="#3AAFA9" fill-opacity="0.58"/>
<circle cx="523.6" cy="471.1" r="3" fill="#3AAFA9" fill-opacity="0.58"/>
<circle cx="534.5" cy="477.6" r="3" fill="#3AAFA9" fill-opacity="0.58"/>
<circle cx="547.8" cy="462.6" r="3" fill="#3AAFA9" fill-opacity="0.58"/>
<circle cx="552.7" cy="456.3" r="3" fill="#3AAFA9" fill-opacity="0.58"/>
<circle cx="507.6" cy="461.0" r="3" fill="#3AAFA9" fill-opacity="0.58"/>
<circle cx="521.2" cy="466.0" r="3" fill="#3AAFA9" fill-opacity="0.58"/>
<circle cx="519.6" cy="461.1" r="3" fill="#3AAFA9" fill-opacity="0.58"/>
<circle cx="457.5" cy="468.3" r="3" fill="#3AAFA9" fill-opacity="0.58"/>
<circle cx="537.7" cy="466.3" r="3" fill="#3AAFA9" fill-opacity="0.58"/>
<circle cx="557.3" cy="467.6" r="3" fill="#3AAFA9" fill-opacity="0.58"/>
<circle cx="529.5" cy="481.7" r="3" fill="#3AAFA9" fill-opacity="0.58"/>
<circle cx="534.4" cy="456.8" r="3" fill="#3AAFA9" fill-opacity="0.58"/>
<circle cx="545.6" cy="450.2" r="3" fill="#3AAFA9" fill-opacity="0.58"/>
<circle cx="493.6" cy="490.7" r="3" fill="#3AAFA9" fill-opacity="0.58"/>
<circle cx="509.8" cy="476.7" r="3" fill="#3AAFA9" fill-opacity="0.58"/>
<circle cx="515.7" cy="483.1" r="3" fill="#3AAFA9" fill-opacity="0.58"/>
<circle cx="521.4" cy="479.3" r="3" fill="#3AAFA9" fill-opacity="0.58"/>
<circle cx="535.0" cy="480.9" r="3" fill="#3AAFA9" fill-opacity="0.58"/>
<circle cx="511.3" cy="484.7" r="3" fill="#3AAFA9" fill-opacity="0.58"/>
<circle cx="522.9" cy="493.1" r="3" fill="#3AAFA9" fill-opacity="0.58"/>
<circle cx="426.3" cy="488.7" r="3" fill="#3AAFA9" fill-opacity="0.58"/>
<circle cx="505.5" cy="480.6" r="3" fill="#3AAFA9" fill-opacity="0.58"/>
<circle cx="508.7" cy="483.7" r="3" fill="#3AAFA9" fill-opacity="0.58"/>
<circle cx="489.2" cy="486.5" r="3" fill="#3AAFA9" fill-opacity="0.58"/>
<circle cx="451.9" cy="483.4" r="3" fill="#3AAFA9" fill-opacity="0.58"/>
<circle cx="377.9" cy="505.3" r="3" fill="#3AAFA9" fill-opacity="0.58"/>
<circle cx="460.7" cy="503.9" r="3" fill="#3AAFA9" fill-opacity="0.58"/>
<circle cx="446.8" cy="500.5" r="3" fill="#3AAFA9" fill-opacity="0.58"/>
<circle cx="312.7" cy="540.7" r="3" fill="#3AAFA9" fill-opacity="0.58"/>
<circle cx="392.0" cy="504.9" r="3" fill="#3AAFA9" fill-opacity="0.58"/>
<circle cx="334.9" cy="535.8" r="3" fill="#3AAFA9" fill-opacity="0.58"/>
<circle cx="420.3" cy="511.1" r="3" fill="#3AAFA9" fill-opacity="0.58"/>
<circle cx="301.9" cy="554.9" r="3" fill="#3AAFA9" fill-opacity="0.58"/>
<circle cx="335.9" cy="558.7" r="3" fill="#3AAFA9" fill-opacity="0.58"/>
<circle cx="338.5" cy="570.1" r="3" fill="#3AAFA9" fill-opacity="0.58"/>
<circle cx="406.5" cy="514.0" r="3" fill="#3AAFA9" fill-opacity="0.58"/>
<circle cx="412.2" cy="541.9" r="3" fill="#3AAFA9" fill-opacity="0.58"/>
<circle cx="275.4" cy="582.7" r="3" fill="#3AAFA9" fill-opacity="0.58"/>
<circle cx="402.1" cy="577.7" r="3" fill="#3AAFA9" fill-opacity="0.58"/>
<circle cx="276.5" cy="582.9" r="3" fill="#3AAFA9" fill-opacity="0.58"/>
<circle cx="298.9" cy="551.0" r="3" fill="#3AAFA9" fill-opacity="0.58"/>
<circle cx="321.3" cy="571.6" r="3" fill="#3AAFA9" fill-opacity="0.58"/>
<circle cx="355.7" cy="585.0" r="3" fill="#3AAFA9" fill-opacity="0.58"/>
<circle cx="116.4" cy="608.9" r="3" fill="#3AAFA9" fill-opacity="0.58"/>
<circle cx="116.4" cy="592.0" r="3" fill="#3AAFA9" fill-opacity="0.58"/>
<circle cx="116.4" cy="625.2" r="3" fill="#3AAFA9" fill-opacity="0.58"/>
<circle cx="116.4" cy="592.0" r="3" fill="#3AAFA9" fill-opacity="0.58"/>
<circle cx="116.4" cy="632.0" r="3" fill="#3AAFA9" fill-opacity="0.58"/>
<circle cx="310.8" cy="645.6" r="3" fill="#3AAFA9" fill-opacity="0.58"/>
<circle cx="116.4" cy="674.6" r="3" fill="#3AAFA9" fill-opacity="0.58"/>
<circle cx="116.4" cy="674.3" r="3" fill="#3AAFA9" fill-opacity="0.58"/>
<circle cx="116.4" cy="667.5" r="3" fill="#3AAFA9" fill-opacity="0.58"/>
<circle cx="293.6" cy="658.4" r="3" fill="#3AAFA9" fill-opacity="0.58"/>
<circle cx="116.4" cy="626.5" r="3" fill="#3AAFA9" fill-opacity="0.58"/>
<circle cx="116.4" cy="683.0" r="3" fill="#3AAFA9" fill-opacity="0.58"/>
<circle cx="329.7" cy="655.7" r="3" fill="#3AAFA9" fill-opacity="0.58"/>
<circle cx="116.4" cy="652.0" r="3" fill="#3AAFA9" fill-opacity="0.58"/>
<circle cx="116.4" cy="656.4" r="3" fill="#3AAFA9" fill-opacity="0.58"/>
<circle cx="314.0" cy="642.0" r="3" fill="#3AAFA9" fill-opacity="0.58"/>
<circle cx="326.5" cy="672.9" r="3" fill="#3AAFA9" fill-opacity="0.58"/>
<circle cx="116.4" cy="638.6" r="3" fill="#3AAFA9" fill-opacity="0.58"/>
<circle cx="116.4" cy="662.9" r="3" fill="#3AAFA9" fill-opacity="0.58"/>
<circle cx="116.4" cy="649.7" r="3" fill="#3AAFA9" fill-opacity="0.58"/>
<circle cx="116.4" cy="654.8" r="3" fill="#3AAFA9" fill-opacity="0.58"/>
<circle cx="116.4" cy="665.0" r="3" fill="#3AAFA9" fill-opacity="0.58"/>
<circle cx="116.4" cy="688.9" r="3" fill="#3AAFA9" fill-opacity="0.58"/>
<circle cx="116.4" cy="688.9" r="3" fill="#3AAFA9" fill-opacity="0.58"/>
<circle cx="116.4" cy="692.7" r="3" fill="#3AAFA9" fill-opacity="0.58"/>
<circle cx="116.4" cy="689.6" r="3" fill="#3AAFA9" fill-opacity="0.58"/>
<circle cx="116.4" cy="694.2" r="3" fill="#3AAFA9" fill-opacity="0.58"/>
<circle cx="116.4" cy="695.6" r="3" fill="#3AAFA9" fill-opacity="0.58"/>
<circle cx="116.4" cy="699.2" r="3" fill="#3AAFA9" fill-opacity="0.58"/>
<circle cx="116.4" cy="688.7" r="3" fill="#3AAFA9" fill-opacity="0.58"/>
<circle cx="116.4" cy="684.3" r="3" fill="#3AAFA9" fill-opacity="0.58"/>
<circle cx="116.4" cy="687.0" r="3" fill="#3AAFA9" fill-opacity="0.58"/>
<circle cx="116.4" cy="691.0" r="3" fill="#3AAFA9" fill-opacity="0.58"/>
<circle cx="116.4" cy="688.9" r="3" fill="#3AAFA9" fill-opacity="0.58"/>
<circle cx="302.5" cy="687.8" r="3" fill="#3AAFA9" fill-opacity="0.58"/>
<circle cx="116.4" cy="695.7" r="3" fill="#3AAFA9" fill-opacity="0.58"/>
<circle cx="116.4" cy="647.5" r="3" fill="#3AAFA9" fill-opacity="0.58"/>
<circle cx="116.4" cy="694.0" r="3" fill="#3AAFA9" fill-opacity="0.58"/>
<circle cx="116.4" cy="699.5" r="3" fill="#3AAFA9" fill-opacity="0.58"/>
<circle cx="116.4" cy="700.5" r="3" fill="#3AAFA9" fill-opacity="0.58"/>
<circle cx="326.5" cy="672.4" r="3" fill="#3AAFA9" fill-opacity="0.58"/>
<circle cx="116.4" cy="691.4" r="3" fill="#3AAFA9" fill-opacity="0.58"/>
<circle cx="116.4" cy="691.0" r="3" fill="#3AAFA9" fill-opacity="0.58"/>
<circle cx="255.2" cy="638.2" r="3" fill="#3AAFA9" fill-opacity="0.58"/>
<circle cx="251.6" cy="692.6" r="3" fill="#3AAFA9" fill-opacity="0.58"/>
<circle cx="116.4" cy="693.1" r="3" fill="#3AAFA9" fill-opacity="0.58"/>
<circle cx="116.4" cy="637.9" r="3" fill="#3AAFA9" fill-opacity="0.58"/>
<circle cx="116.4" cy="664.6" r="3" fill="#3AAFA9" fill-opacity="0.58"/>
<circle cx="116.4" cy="666.1" r="3" fill="#3AAFA9" fill-opacity="0.58"/>
<circle cx="116.4" cy="690.1" r="3" fill="#3AAFA9" fill-opacity="0.58"/>
<circle cx="272.0" cy="688.6" r="3" fill="#3AAFA9" fill-opacity="0.58"/>
<circle cx="116.4" cy="682.6" r="3" fill="#3AAFA9" fill-opacity="0.58"/>
<circle cx="323.8" cy="687.0" r="3" fill="#3AAFA9" fill-opacity="0.58"/>
<circle cx="116.4" cy="644.5" r="3" fill="#3AAFA9" fill-opacity="0.58"/>
<circle cx="116.4" cy="663.4" r="3" fill="#3AAFA9" fill-opacity="0.58"/>
<circle cx="116.4" cy="688.7" r="3" fill="#3AAFA9" fill-opacity="0.58"/>
<circle cx="116.4" cy="697.4" r="3" fill="#3AAFA9" fill-opacity="0.58"/>
<circle cx="116.4" cy="659.4" r="3" fill="#3AAFA9" fill-opacity="0.58"/>
<circle cx="116.4" cy="674.3" r="3" fill="#3AAFA9" fill-opacity="0.58"/>
<circle cx="116.4" cy="685.5" r="3" fill="#3AAFA9" fill-opacity="0.58"/>
<circle cx="289.1" cy="685.9" r="3" fill="#3AAFA9" fill-opacity="0.58"/>
<circle cx="116.4" cy="688.2" r="3" fill="#3AAFA9" fill-opacity="0.58"/>
<circle cx="116.4" cy="658.1" r="3" fill="#3AAFA9" fill-opacity="0.58"/>
<circle cx="116.4" cy="684.1" r="3" fill="#3AAFA9" fill-opacity="0.58"/>
<circle cx="116.4" cy="691.1" r="3" fill="#3AAFA9" fill-opacity="0.58"/>
<circle cx="116.4" cy="688.3" r="3" fill="#3AAFA9" fill-opacity="0.58"/>
<circle cx="116.4" cy="690.0" r="3" fill="#3AAFA9" fill-opacity="0.58"/>
<circle cx="116.4" cy="672.3" r="3" fill="#3AAFA9" fill-opacity="0.58"/>
<circle cx="116.4" cy="692.0" r="3" fill="#3AAFA9" fill-opacity="0.58"/>
<circle cx="116.4" cy="688.5" r="3" fill="#3AAFA9" fill-opacity="0.58"/>
<circle cx="116.4" cy="690.9" r="3" fill="#3AAFA9" fill-opacity="0.58"/>
<circle cx="116.4" cy="683.0" r="3" fill="#3AAFA9" fill-opacity="0.58"/>
<circle cx="116.4" cy="684.3" r="3" fill="#3AAFA9" fill-opacity="0.58"/>
<circle cx="116.4" cy="682.5" r="3" fill="#3AAFA9" fill-opacity="0.58"/>
<circle cx="301.3" cy="677.0" r="3" fill="#3AAFA9" fill-opacity="0.58"/>
<circle cx="116.4" cy="680.1" r="3" fill="#3AAFA9" fill-opacity="0.58"/>
<circle cx="255.2" cy="674.4" r="3" fill="#3AAFA9" fill-opacity="0.58"/>
<circle cx="116.4" cy="648.3" r="3" fill="#3AAFA9" fill-opacity="0.58"/>
<circle cx="290.7" cy="635.3" r="3" fill="#3AAFA9" fill-opacity="0.58"/>
<circle cx="116.4" cy="670.1" r="3" fill="#3AAFA9" fill-opacity="0.58"/>
<circle cx="298.3" cy="629.1" r="3" fill="#3AAFA9" fill-opacity="0.58"/>
<circle cx="116.4" cy="673.9" r="3" fill="#3AAFA9" fill-opacity="0.58"/>
<circle cx="347.1" cy="650.2" r="3" fill="#3AAFA9" fill-opacity="0.58"/>
<circle cx="319.8" cy="623.5" r="3" fill="#3AAFA9" fill-opacity="0.58"/>
<circle cx="255.2" cy="620.7" r="3" fill="#3AAFA9" fill-opacity="0.58"/>
<circle cx="274.3" cy="669.1" r="3" fill="#3AAFA9" fill-opacity="0.58"/>
<circle cx="343.0" cy="569.5" r="3" fill="#3AAFA9" fill-opacity="0.58"/>
<circle cx="310.8" cy="591.7" r="3" fill="#3AAFA9" fill-opacity="0.58"/>
<circle cx="331.5" cy="609.1" r="3" fill="#3AAFA9" fill-opacity="0.58"/>
<circle cx="394.0" cy="570.2" r="3" fill="#3AAFA9" fill-opacity="0.58"/>
<circle cx="366.6" cy="577.6" r="3" fill="#3AAFA9" fill-opacity="0.58"/>
<circle cx="322.4" cy="569.5" r="3" fill="#3AAFA9" fill-opacity="0.58"/>
<circle cx="402.3" cy="567.0" r="3" fill="#3AAFA9" fill-opacity="0.58"/>
<circle cx="393.6" cy="556.0" r="3" fill="#3AAFA9" fill-opacity="0.58"/>
<circle cx="413.4" cy="563.3" r="3" fill="#3AAFA9" fill-opacity="0.58"/>
<circle cx="424.7" cy="538.4" r="3" fill="#3AAFA9" fill-opacity="0.58"/>
<circle cx="389.9" cy="543.8" r="3" fill="#3AAFA9" fill-opacity="0.58"/>
<circle cx="405.9" cy="527.6" r="3" fill="#3AAFA9" fill-opacity="0.58"/>
<circle cx="399.4" cy="510.7" r="3" fill="#3AAFA9" fill-opacity="0.58"/>
<circle cx="417.2" cy="532.3" r="3" fill="#3AAFA9" fill-opacity="0.58"/>
<circle cx="513.1" cy="526.7" r="3" fill="#3AAFA9" fill-opacity="0.58"/>
<circle cx="462.8" cy="510.3" r="3" fill="#3AAFA9" fill-opacity="0.58"/>
<circle cx="480.9" cy="526.1" r="3" fill="#3AAFA9" fill-opacity="0.58"/>
<circle cx="412.0" cy="503.9" r="3" fill="#3AAFA9" fill-opacity="0.58"/>
<circle cx="537.7" cy="482.2" r="3" fill="#3AAFA9" fill-opacity="0.58"/>
<circle cx="549.8" cy="493.7" r="3" fill="#3AAFA9" fill-opacity="0.58"/>
<circle cx="409.4" cy="509.9" r="3" fill="#3AAFA9" fill-opacity="0.58"/>
<circle cx="571.6" cy="457.0" r="3" fill="#3AAFA9" fill-opacity="0.58"/>
<circle cx="476.3" cy="497.9" r="3" fill="#3AAFA9" fill-opacity="0.58"/>
<circle cx="518.0" cy="453.2" r="3" fill="#3AAFA9" fill-opacity="0.58"/>
<circle cx="513.0" cy="454.1" r="3" fill="#3AAFA9" fill-opacity="0.58"/>
<circle cx="550.6" cy="445.4" r="3" fill="#3AAFA9" fill-opacity="0.58"/>
<circle cx="511.6" cy="485.7" r="3" fill="#3AAFA9" fill-opacity="0.58"/>
<circle cx="520.0" cy="466.9" r="3" fill="#3AAFA9" fill-opacity="0.58"/>
<circle cx="641.2" cy="451.0" r="3" fill="#3AAFA9" fill-opacity="0.58"/>
<circle cx="500.7" cy="475.6" r="3" fill="#3AAFA9" fill-opacity="0.58"/>
<circle cx="558.8" cy="463.2" r="3" fill="#3AAFA9" fill-opacity="0.58"/>
<circle cx="573.8" cy="454.7" r="3" fill="#3AAFA9" fill-opacity="0.58"/>
<circle cx="552.1" cy="437.0" r="3" fill="#3AAFA9" fill-opacity="0.58"/>
<circle cx="548.6" cy="465.7" r="3" fill="#3AAFA9" fill-opacity="0.58"/>
<circle cx="486.9" cy="463.7" r="3" fill="#3AAFA9" fill-opacity="0.58"/>
<circle cx="522.9" cy="453.9" r="3" fill="#3AAFA9" fill-opacity="0.58"/>
<circle cx="558.0" cy="449.0" r="3" fill="#3AAFA9" fill-opacity="0.58"/>
<circle cx="561.5" cy="455.3" r="3" fill="#3AAFA9" fill-opacity="0.58"/>
<circle cx="506.7" cy="462.6" r="3" fill="#3AAFA9" fill-opacity="0.58"/>
<circle cx="556.1" cy="445.2" r="3" fill="#3AAFA9" fill-opacity="0.58"/>
<circle cx="503.1" cy="455.2" r="3" fill="#3AAFA9" fill-opacity="0.58"/>
<circle cx="532.3" cy="471.0" r="3" fill="#3AAFA9" fill-opacity="0.58"/>
<circle cx="552.8" cy="450.3" r="3" fill="#3AAFA9" fill-opacity="0.58"/>
<circle cx="497.5" cy="471.5" r="3" fill="#3AAFA9" fill-opacity="0.58"/>
<circle cx="530.3" cy="471.2" r="3" fill="#3AAFA9" fill-opacity="0.58"/>
<circle cx="550.6" cy="446.8" r="3" fill="#3AAFA9" fill-opacity="0.58"/>
<circle cx="561.1" cy="476.5" r="3" fill="#3AAFA9" fill-opacity="0.58"/>
<circle cx="550.5" cy="463.6" r="3" fill="#3AAFA9" fill-opacity="0.58"/>
<circle cx="554.9" cy="478.2" r="3" fill="#3AAFA9" fill-opacity="0.58"/>
<circle cx="523.8" cy="492.4" r="3" fill="#3AAFA9" fill-opacity="0.58"/>
<circle cx="515.1" cy="461.0" r="3" fill="#3AAFA9" fill-opacity="0.58"/>
<circle cx="525.2" cy="459.3" r="3" fill="#3AAFA9" fill-opacity="0.58"/>
<circle cx="498.8" cy="470.2" r="3" fill="#3AAFA9" fill-opacity="0.58"/>
<circle cx="506.9" cy="480.6" r="3" fill="#3AAFA9" fill-opacity="0.58"/>
<circle cx="555.0" cy="476.9" r="3" fill="#3AAFA9" fill-opacity="0.58"/>
<circle cx="519.4" cy="484.2" r="3" fill="#3AAFA9" fill-opacity="0.58"/>
<circle cx="522.6" cy="474.4" r="3" fill="#3AAFA9" fill-opacity="0.58"/>
<circle cx="528.5" cy="471.7" r="3" fill="#3AAFA9" fill-opacity="0.58"/>
<circle cx="505.9" cy="479.8" r="3" fill="#3AAFA9" fill-opacity="0.58"/>
<circle cx="513.1" cy="484.6" r="3" fill="#3AAFA9" fill-opacity="0.58"/>
<circle cx="465.8" cy="479.8" r="3" fill="#3AAFA9" fill-opacity="0.58"/>
<circle cx="521.8" cy="474.8" r="3" fill="#3AAFA9" fill-opacity="0.58"/>
<circle cx="525.5" cy="480.6" r="3" fill="#3AAFA9" fill-opacity="0.58"/>
<circle cx="550.8" cy="475.1" r="3" fill="#3AAFA9" fill-opacity="0.58"/>
<circle cx="552.9" cy="475.9" r="3" fill="#3AAFA9" fill-opacity="0.58"/>
<circle cx="487.3" cy="499.2" r="3" fill="#3AAFA9" fill-opacity="0.58"/>
<circle cx="507.5" cy="493.1" r="3" fill="#3AAFA9" fill-opacity="0.58"/>
<circle cx="539.0" cy="464.4" r="3" fill="#3AAFA9" fill-opacity="0.58"/>
<circle cx="513.7" cy="479.4" r="3" fill="#3AAFA9" fill-opacity="0.58"/>
<circle cx="537.2" cy="459.9" r="3" fill="#3AAFA9" fill-opacity="0.58"/>
<circle cx="474.4" cy="483.2" r="3" fill="#3AAFA9" fill-opacity="0.58"/>
<circle cx="525.5" cy="463.9" r="3" fill="#3AAFA9" fill-opacity="0.58"/>
<circle cx="529.0" cy="476.1" r="3" fill="#3AAFA9" fill-opacity="0.58"/>
<circle cx="500.8" cy="486.9" r="3" fill="#3AAFA9" fill-opacity="0.58"/>
<circle cx="456.2" cy="495.3" r="3" fill="#3AAFA9" fill-opacity="0.58"/>
<circle cx="528.2" cy="465.5" r="3" fill="#3AAFA9" fill-opacity="0.58"/>
<circle cx="510.4" cy="490.3" r="3" fill="#3AAFA9" fill-opacity="0.58"/>
<circle cx="445.1" cy="505.1" r="3" fill="#3AAFA9" fill-opacity="0.58"/>
<circle cx="533.2" cy="490.1" r="3" fill="#3AAFA9" fill-opacity="0.58"/>
<circle cx="539.7" cy="488.9" r="3" fill="#3AAFA9" fill-opacity="0.58"/>
<circle cx="501.9" cy="498.7" r="3" fill="#3AAFA9" fill-opacity="0.58"/>
<circle cx="439.0" cy="519.8" r="3" fill="#3AAFA9" fill-opacity="0.58"/>
<circle cx="532.5" cy="491.5" r="3" fill="#3AAFA9" fill-opacity="0.58"/>
<circle cx="529.8" cy="489.2" r="3" fill="#3AAFA9" fill-opacity="0.58"/>
<circle cx="449.7" cy="523.1" r="3" fill="#3AAFA9" fill-opacity="0.58"/>
<circle cx="453.2" cy="503.1" r="3" fill="#3AAFA9" fill-opacity="0.58"/>
<circle cx="536.9" cy="497.1" r="3" fill="#3AAFA9" fill-opacity="0.58"/>
<circle cx="526.3" cy="496.5" r="3" fill="#3AAFA9" fill-opacity="0.58"/>
<circle cx="409.3" cy="524.9" r="3" fill="#3AAFA9" fill-opacity="0.58"/>
<circle cx="418.6" cy="519.2" r="3" fill="#3AAFA9" fill-opacity="0.58"/>
<circle cx="511.7" cy="502.3" r="3" fill="#3AAFA9" fill-opacity="0.58"/>
<circle cx="476.4" cy="509.2" r="3" fill="#3AAFA9" fill-opacity="0.58"/>
<circle cx="337.8" cy="531.1" r="3" fill="#3AAFA9" fill-opacity="0.58"/>
<circle cx="435.4" cy="513.1" r="3" fill="#3AAFA9" fill-opacity="0.58"/>
<circle cx="322.0" cy="543.8" r="3" fill="#3AAFA9" fill-opacity="0.58"/>
<circle cx="319.4" cy="572.5" r="3" fill="#3AAFA9" fill-opacity="0.58"/>
<circle cx="339.0" cy="566.5" r="3" fill="#3AAFA9" fill-opacity="0.58"/>
<circle cx="388.2" cy="532.9" r="3" fill="#3AAFA9" fill-opacity="0.58"/>
<circle cx="373.9" cy="556.3" r="3" fill="#3AAFA9" fill-opacity="0.58"/>
<circle cx="339.3" cy="610.8" r="3" fill="#3AAFA9" fill-opacity="0.58"/>
<circle cx="351.5" cy="581.4" r="3" fill="#3AAFA9" fill-opacity="0.58"/>
<text x="373.0" y="756" text-anchor="middle" font-size="13" fill="#475569">Actual next_log_cells</text>
<text transform="translate(38,546.0) rotate(-90)" text-anchor="middle" font-size="13" fill="#475569">Predicted next_log_cells</text>
<rect x="742" y="322" width="600" height="460" rx="8" fill="#ffffff" stroke="#d7dde8"/>
<text x="760" y="356" font-size="20" font-weight="800" fill="#1f2937">Residual Distribution</text>
<line x1="760" y1="716" x2="1280" y2="716" stroke="#cbd5e1"/>
<line x1="760" y1="376" x2="760" y2="716" stroke="#cbd5e1"/>
<rect x="760.0" y="706.8" width="25.1" height="9.2" rx="3" fill="#9673A6"/>
<rect x="789.1" y="706.8" width="25.1" height="9.2" rx="3" fill="#9673A6"/>
<rect x="818.2" y="706.8" width="25.1" height="9.2" rx="3" fill="#9673A6"/>
<rect x="847.3" y="693.0" width="25.1" height="23.0" rx="3" fill="#9673A6"/>
<rect x="876.4" y="693.0" width="25.1" height="23.0" rx="3" fill="#9673A6"/>
<rect x="905.6" y="656.3" width="25.1" height="59.7" rx="3" fill="#9673A6"/>
<rect x="934.7" y="647.1" width="25.1" height="68.9" rx="3" fill="#9673A6"/>
<rect x="963.8" y="536.8" width="25.1" height="179.2" rx="3" fill="#9673A6"/>
<rect x="992.9" y="376.0" width="25.1" height="340.0" rx="3" fill="#9673A6"/>
<rect x="1022.0" y="449.5" width="25.1" height="266.5" rx="3" fill="#9673A6"/>
<rect x="1051.1" y="536.8" width="25.1" height="179.2" rx="3" fill="#9673A6"/>
<rect x="1080.2" y="601.1" width="25.1" height="114.9" rx="3" fill="#9673A6"/>
<rect x="1109.3" y="665.5" width="25.1" height="50.5" rx="3" fill="#9673A6"/>
<rect x="1138.4" y="679.2" width="25.1" height="36.8" rx="3" fill="#9673A6"/>
<rect x="1167.6" y="683.8" width="25.1" height="32.2" rx="3" fill="#9673A6"/>
<rect x="1196.7" y="683.8" width="25.1" height="32.2" rx="3" fill="#9673A6"/>
<rect x="1225.8" y="706.8" width="25.1" height="9.2" rx="3" fill="#9673A6"/>
<rect x="1254.9" y="711.4" width="25.1" height="4.6" rx="3" fill="#9673A6"/>
<text x="1020.0" y="756" text-anchor="middle" font-size="13" fill="#475569">Actual - Predicted residual</text>
<text x="760" y="778" font-size="12" fill="#64748b">Mean residual: 0.156</text>
<text x="980" y="778" font-size="12" fill="#64748b">Best log RMSE: Stacking Ensemble</text>
<text x="980" y="798" font-size="12" fill="#64748b">Best cell RMSE: LightGBM</text>
</svg>